<svg xmlns="http://www.w3.org/2000/svg" viewBox="0 0 256 257" width="31.88" height="32" preserveAspectRatio="xMidYMid meet">
  <path fill="#1B1F23" d="M128.001 0C57.317 0 0 57.307 0 128.001c0 56.554 36.676 104.535 87.535 121.46 6.397 1.185 8.746-2.777 8.746-6.158 0-3.052-.12-13.135-.174-23.83-35.61 7.742-43.124-15.103-43.124-15.103-5.823-14.795-14.213-18.73-14.213-18.73-11.613-7.944.876-7.78.876-7.78 12.861.902 19.621 13.209 19.621 13.209 11.417 19.54 29.944 13.87 37.249 10.61 1.149-8.25 4.461-13.877 8.102-17.05-28.354-3.223-58.187-14.177-58.187-63.226 0-13.985 4.988-25.43 13.209-34.41-1.327-3.227-5.723-16.242 1.246-33.874 0 0 10.749-3.44 35.21 13.121 10.21-2.836 21.16-4.258 32.038-4.307 10.878.049 21.837 1.47 32.066 4.307 24.431-16.56 35.161-13.121 35.161-13.121 6.997 17.655 2.593 30.647 1.267 33.874 8.24 8.945 13.19 20.425 13.19 34.41 0 49.214-29.868 59.948-58.386 63.105 4.591 3.972 8.682 11.762 8.682 23.704 0 17.088-.147 30.845-.147 35.048 0 3.392 2.313 7.371 8.803 6.114 50.822-16.933 87.461-64.889 87.461-121.403C256.002 57.307 198.691 0 128.001 0Z"/>
</svg>